<?xml version="1.0" encoding="utf-8"?>
<!-- Generator: Adobe Illustrator 23.0.1, SVG Export Plug-In . SVG Version: 6.00 Build 0)  -->
<!DOCTYPE svg PUBLIC "-//W3C//DTD SVG 1.1//EN" "http://www.w3.org/Graphics/SVG/1.1/DTD/svg11.dtd" [
	<!ENTITY ns_extend "http://ns.adobe.com/Extensibility/1.0/">
	<!ENTITY ns_ai "http://ns.adobe.com/AdobeIllustrator/10.0/">
	<!ENTITY ns_graphs "http://ns.adobe.com/Graphs/1.0/">
	<!ENTITY ns_vars "http://ns.adobe.com/Variables/1.0/">
	<!ENTITY ns_imrep "http://ns.adobe.com/ImageReplacement/1.0/">
	<!ENTITY ns_sfw "http://ns.adobe.com/SaveForWeb/1.0/">
	<!ENTITY ns_custom "http://ns.adobe.com/GenericCustomNamespace/1.0/">
	<!ENTITY ns_adobe_xpath "http://ns.adobe.com/XPath/1.0/">
]>
<svg version="1.1" id="Layer_1" xmlns:x="&ns_extend;" xmlns:i="&ns_ai;" xmlns:graph="&ns_graphs;"
	 xmlns="http://www.w3.org/2000/svg" xmlns:xlink="http://www.w3.org/1999/xlink" x="0px" y="0px" viewBox="0 0 417 131.8"
	 enable-background="new 0 0 417 131.8" xml:space="preserve">
<metadata>
	<sfw  xmlns="&ns_sfw;">
		<slices></slices>
		<sliceSourceBounds  bottomLeftOrigin="true" height="131.8" width="417" x="747.7" y="481.6"></sliceSourceBounds>
	</sfw>
</metadata>
<g>
	<path fill="#555758" d="M166.4,74.6c-0.5,0.6-0.7,0.8-0.9,1.1c-5.5,7.3-17.8,7.3-23-2c-2.2-3.9-3-8.2-1.9-12.7
		c0.2-0.9,0.4-1.9,0.7-2.8c1.9-5.4,5.6-8.9,11.4-9.7c5.7-0.7,10.4,1.2,13.6,6.1c0.2,0.3,0.4,0.6,0.6,0.8c0.5,0,0.5-0.4,0.5-0.7
		c0-1.1-0.1-2.3,0-3.4c0.2-2.5,3-3.8,5.1-2.5c0.9,0.6,1.5,1.4,1.6,2.5c0,0.4,0.1,0.7,0.1,1.1c0,9.1,0,18.2,0,27.3
		c0,4.4-1.6,8.3-4.7,11.5c-2.6,2.7-5.8,4.3-9.5,5c-5.9,1.2-12.8-1.7-16.4-6.8c-0.2-0.3-0.4-0.6-0.6-0.9c-0.2-0.6-0.1-1.1,0.3-1.5
		c0.5-0.4,1.2-0.5,1.6,0c0.4,0.3,0.6,0.7,1,1.1c1.8,1.9,3.9,3.4,6.5,3.9c8.4,1.5,13.7-5,14-10.5c0.1-1.8,0-3.6,0-5.4
		C166.5,75.8,166.4,75.4,166.4,74.6z M166.5,64.5c-0.1-0.9-0.1-1.8-0.2-2.7c-0.4-2.9-1.6-5.5-3.9-7.5c-3.2-2.7-7.7-2.7-10.8,0.1
		c-1.3,1.2-2.3,2.6-2.9,4.3c-0.5,1.4-0.8,2.8-0.9,4.2c-0.2,2.2-0.1,4.4,0.6,6.6c0.7,2.4,2,4.3,4,5.8c2.7,2,7,2,9.7-0.3
		c1.6-1.3,2.8-2.9,3.5-4.9C166.3,68.4,166.5,66.5,166.5,64.5z"/>
	<path fill="#9B9B3B" d="M308.5,74.9c-0.6,0.7-1,1.2-1.4,1.7c-3,3.2-6.7,4.6-11,4.3c-6.2-0.5-10.3-3.9-12.4-9.6
		c-1.7-4.7-1.6-9.5,0.3-14.1c4-9.6,15-10.9,21.4-6.1c1.1,0.8,2,1.8,2.7,2.8c0.3,0.4,0.6,0.9,0.9,1.2c0.5,0,0.5-0.3,0.5-0.6
		c0-1,0-1.9,0-2.9c0-1.1,0.5-2,1.4-2.6c2.1-1.5,5-0.3,5.4,2.2c0.1,0.4,0.1,0.8,0.1,1.3c0,9,0,18,0,27c0,6.5-2.9,11.4-8.4,14.7
		c-1.9,1.2-3.9,1.7-6.1,2.2c-4.2,1-10.4-1.1-13-3.5c-1.1-1-2.1-2.1-3.1-3.2c-0.3-0.3-0.5-0.8-0.7-1.2c-0.2-0.5,0.1-1,0.4-1.3
		c0.5-0.3,1.1-0.4,1.5-0.1c0.4,0.3,0.7,0.7,1,1c1.8,1.9,3.8,3.3,6.3,3.9c6.9,1.6,13.8-3.4,14.3-10.5c0.1-2,0-4,0-5.9
		C308.7,75.4,308.6,75.2,308.5,74.9z M290.1,64.7c0,0.8,0,1.6,0.1,2.3c0.3,2.9,1.3,5.5,3.5,7.5c3.1,3,7.8,2.9,10.7,0.6
		c1.9-1.5,3.2-3.4,3.8-5.7c0.8-2.9,0.9-5.8,0.2-8.7c-0.5-2.5-1.7-4.6-3.6-6.3c-3.4-2.9-8-2.6-11,0.1c-1.2,1.1-2.1,2.3-2.7,3.8
		C290.3,60.4,290,62.5,290.1,64.7z"/>
	<path fill="#9B9C3C" d="M374.8,54.3c0.5-0.6,0.8-1,1.1-1.4c3.5-3.8,7.8-5.4,12.8-4.4c5,1,8.5,4,10.2,8.9c0.5,1.4,0.7,2.8,0.7,4.2
		c0,5,0,10.1,0,15.1c0,1.5-0.5,2.7-1.8,3.5c-2.6,1.6-5.8-0.3-5.8-3c0-1.4,0-2.8,0-4.1c0-3.8,0-7.7,0-11.5c0-1-0.1-1.9-0.3-2.9
		c-0.8-3.7-4.2-6.3-7.9-6.4c-3.8-0.1-7.2,2.4-8.2,6c-0.2,0.9-0.3,1.8-0.3,2.7c0,4.9,0,9.8,0,14.8c0,0.5,0,1.1,0,1.6
		c-0.2,2-1.9,3.5-3.9,3.4c-2.1-0.1-3.7-1.7-3.7-3.8c0-2.5,0-4.9,0-7.4c0-5.6,0-11.3,0-16.9c0-0.4,0-0.8,0-1.3
		c0.1-1.8,1.7-3.2,3.5-3.2c1.8,0,3.3,1.4,3.4,3.3c0,0.6,0,1.2,0,1.8C374.6,53.6,374.7,53.8,374.8,54.3z"/>
	<path fill="#555758" d="M199.8,80.8c-3.5,0.1-6.8-0.7-9.9-2.4c-4.6-2.5-7.2-6.4-7.8-11.6c-0.3-2-0.2-4.1,0.3-6.1
		c0.9-4.1,3.2-7.3,6.8-9.5c2.5-1.6,5.3-2.5,8.3-2.8c4.1-0.4,8,0.1,11.7,2c5.6,2.9,8.4,7.5,8.5,13.7c0,1.8-0.2,3.6-0.7,5.3
		c-1.3,4.4-4.2,7.4-8.3,9.4C205.8,80.3,202.8,80.9,199.8,80.8z M210,64.6c0-2.2-0.2-4.4-1.2-6.5c-1.8-3.8-4.8-5.8-9-5.8
		c-4.2,0-7.2,1.9-9.1,5.6c-0.7,1.3-1,2.7-1.2,4.1c-0.3,2.9-0.2,5.7,0.9,8.5c1.2,3.2,4.5,6.4,9.8,6.2c4.1-0.2,7.5-2.7,8.9-6.7
		C209.8,68.3,210,66.5,210,64.6z"/>
	<path fill="#9B9B3A" d="M342.5,48.3c3.2,0,6.6,0.8,9.8,2.7c4.2,2.5,6.7,6.1,7.4,10.9c0.3,2.2,0.3,4.4-0.2,6.6
		c-1,4.5-3.7,7.8-7.8,10.1c-5.8,3.2-14.1,3.1-19.8-0.3c-4.3-2.5-6.8-6.3-7.5-11.2c-0.4-2.6-0.2-5.1,0.6-7.6c1.2-3.8,3.6-6.6,7-8.5
		C335.1,49.1,338.5,48.3,342.5,48.3z M352.3,64.7c-0.1-1-0.1-1.9-0.2-2.9c-0.4-2.8-1.4-5.3-3.6-7.2c-4.6-3.9-13.4-3.1-15.9,4.7
		c-1.2,3.6-1.1,7.2,0,10.8c1.4,4.2,5,6.7,9.4,6.7c4.9,0.1,8.3-3.1,9.5-6.6C352,68.4,352.2,66.6,352.3,64.7z"/>
	<path fill="#545758" d="M232.6,54.3c0.3-0.4,0.6-0.8,0.9-1.1c3.5-4.3,9.4-6,14.8-4.2c5.3,1.8,9,6.6,9.1,12.2c0.1,5.3,0,10.6,0,15.8
		c0,1.5-0.9,3-2.5,3.6c-1.5,0.5-3.2,0.1-4.2-1.2c-0.5-0.6-0.8-1.2-0.8-2c0-0.5,0-1,0-1.4c0-4.7,0-9.5,0-14.2c0-0.7,0-1.4-0.1-2.2
		c-0.6-4.9-5.3-8.2-10.2-7.1c-3.2,0.7-5.8,3.4-6.3,6.6c-0.1,0.8-0.1,1.6-0.1,2.3c0,4.8,0,9.6,0,14.4c0,0.6,0,1.2-0.1,1.8
		c-0.3,2-1.9,3.2-4,3.1c-2-0.1-3.5-1.6-3.6-3.5c0-0.4,0-0.7,0-1.1c0-7.9,0-15.7,0-23.6c0-0.4,0-0.7,0-1.1c0.1-1.8,1.7-3.2,3.5-3.2
		c1.8,0,3.3,1.4,3.4,3.3c0,0.9,0,1.8,0,2.6C232.4,54.3,232.5,54.3,232.6,54.3z"/>
	<path fill="#565859" d="M70.3,131.6c-0.2,0.1-0.5,0.1-0.7,0.1c-19.4,0.8-36.2-5.2-50.1-18.9c-7.5-7.4-13-16.1-16.3-26.1
		C1.1,80.5,0,74,0,67.4c0-1.8,0.1-3.6,0.1-5.4c1.3,0,2.5,0,3.8,0c0,1.6-0.1,3.1-0.1,4.7C4,73.9,5.4,80.9,8,87.7
		c4.1,10.6,10.4,19.7,19.5,26.7c12.1,9.3,25.9,13.9,41.2,13.4c0.4,0,0.8,0,1.3,0c0.1,0.3,0.3,0.6,0.3,1
		C70.3,129.7,70.2,130.7,70.3,131.6z"/>
	<path fill="#565858" d="M61.6,0.1c18.6-1.1,34.9,4.4,48.7,16.9c8,7.3,13.9,15.9,17.6,26.1c2.5,6.9,3.8,14.1,3.8,21.5
		c0,1.7-0.1,3.5-0.1,5.2c-1.3,0-2.5,0-3.8,0c0-0.7,0-1.3,0-2c0-2,0.1-4-0.1-5.9c-0.6-8-2.7-15.7-6.2-23c-3.2-6.6-7.4-12.6-12.7-17.7
		c-5.6-5.3-11.9-9.4-19-12.4C82.8,5.9,75.6,4.2,68,4c-2.2-0.1-4.3,0-6.5,0C61.6,2.7,61.6,1.4,61.6,0.1z"/>
	<path fill="#9B9B3C" d="M127.8,69.9c1.3,0,2.5,0,3.8,0c-0.1,1.6-0.1,3.2-0.3,4.8c-1.9,14.3-7.8,26.6-17.8,36.9
		c-5.5,5.7-11.7,10.4-18.9,13.8c-6,2.9-12.3,4.8-18.8,5.7c-1.5,0.2-3,0.4-4.5,0.5c-0.3,0-0.7,0-1.1,0c0-0.9,0-1.9-0.1-2.8
		c0-0.3-0.2-0.6-0.3-1c0.9-0.1,1.9-0.3,2.8-0.4c5-0.7,9.9-1.8,14.6-3.6c12.3-4.7,22.3-12.2,29.7-23.2c6-8.9,9.5-18.8,10.5-29.5
		C127.6,70.7,127.7,70.3,127.8,69.9z"/>
	<path fill="#9B9B3C" d="M61.6,0.1c0,1.3-0.1,2.6-0.1,3.8C61.4,4,61.2,4,61,4.1C57.6,4.5,54.2,5,50.9,5.8
		c-12.7,3.4-23.6,9.8-32.2,19.9C11.7,34.1,7.1,43.8,5,54.5c-0.5,2.5-0.8,5-1.1,7.5c-1.3,0-2.5,0-3.8,0c-0.2-2,0.2-3.9,0.4-5.9
		c1.7-11.9,6.3-22.5,14-31.8C23.2,13.7,34,6.3,47.1,2.4c4-1.2,8.2-1.9,12.3-2.3C60.2,0.1,60.9,0.1,61.6,0.1z"/>
	<path fill="#545758" d="M274.7,64.9c0,3.8,0,7.6,0,11.3c0,0.5,0,1.1-0.1,1.6c-0.3,1.8-1.8,3-3.7,3c-2,0-3.5-1.3-3.8-3.2
		c-0.1-0.5-0.1-1.1-0.1-1.6c0-7.7,0-15.4,0-23c0-0.4,0-0.7,0-1.1c0.2-2.1,1.8-3.6,3.8-3.6c2,0,3.6,1.5,3.8,3.6c0,0.4,0,0.8,0,1.3
		C274.7,57.1,274.7,61,274.7,64.9z"/>
	<path fill="#9A9B3A" d="M409.3,64.7c0-4,0-7.9,0-11.9c0-1.1,0.2-2.1,0.9-3c1-1.2,2.3-1.7,3.8-1.3c1.6,0.4,2.5,1.6,2.8,3.2
		c0.1,0.5,0.1,1,0.1,1.4c0,7.7,0,15.5,0,23.2c0,0.4,0,0.8,0,1.3c-0.2,2-1.8,3.4-3.8,3.4c-2,0-3.6-1.5-3.7-3.4c-0.1-0.5,0-1.1,0-1.6
		C409.3,72.1,409.3,68.4,409.3,64.7z"/>
	<path fill="#56595A" d="M271,35.2c2.2,0.2,3.9,1.8,3.8,4c-0.1,2.1-1.8,3.7-3.9,3.7c-2.2,0-3.8-1.8-3.8-3.9
		C267.1,36.9,268.8,35.3,271,35.2z"/>
	<path fill="#9C9C3D" d="M413.2,42.8c-2.2,0-3.9-1.7-3.9-3.9c0-2,1.7-3.7,3.8-3.8c2.1,0,3.9,1.7,4,3.8
		C417.1,41.1,415.3,42.9,413.2,42.8z"/>
	<path fill="#FDFDFD" d="M166.5,64.5c0,1.9-0.2,3.8-0.9,5.7c-0.7,2-1.9,3.6-3.5,4.9c-2.8,2.3-7,2.2-9.7,0.3c-2-1.5-3.3-3.4-4-5.8
		c-0.6-2.2-0.7-4.4-0.6-6.6c0.1-1.4,0.4-2.9,0.9-4.2c0.6-1.7,1.6-3.1,2.9-4.3c3.2-2.8,7.6-2.9,10.8-0.1c2.3,2,3.5,4.5,3.9,7.5
		C166.5,62.7,166.5,63.6,166.5,64.5z"/>
	<path fill="#FEFEFD" d="M290.1,64.7c0-2.2,0.3-4.3,1.1-6.3c0.6-1.5,1.5-2.7,2.7-3.8c3-2.7,7.6-3.1,11-0.1c1.9,1.7,3.1,3.8,3.6,6.3
		c0.6,2.9,0.6,5.8-0.2,8.7c-0.6,2.3-1.9,4.2-3.8,5.7c-2.9,2.3-7.6,2.3-10.7-0.6c-2.1-2.1-3.1-4.6-3.5-7.5
		C290.1,66.2,290.1,65.5,290.1,64.7z"/>
	<path fill="#FDFDFD" d="M210,64.6c0,1.9-0.2,3.7-0.8,5.5c-1.4,4-4.8,6.5-8.9,6.7c-5.3,0.2-8.6-3-9.8-6.2c-1.1-2.7-1.2-5.6-0.9-8.5
		c0.2-1.4,0.5-2.8,1.2-4.1c1.9-3.7,4.9-5.7,9.1-5.6c4.2,0,7.2,2,9,5.8C209.8,60.2,210,62.4,210,64.6z"/>
	<path fill="#FEFEFD" d="M352.3,64.7c0,1.9-0.2,3.7-0.8,5.5c-1.2,3.6-4.6,6.7-9.5,6.6c-4.4-0.1-8-2.6-9.4-6.7
		c-1.2-3.6-1.2-7.2,0-10.8c2.6-7.7,11.3-8.6,15.9-4.7c2.2,1.9,3.3,4.4,3.6,7.2C352.2,62.8,352.2,63.7,352.3,64.7z"/>
	<path fill="#FEFEFE" d="M3.9,62c0.4-2.5,0.7-5,1.1-7.5c2.1-10.8,6.6-20.4,13.7-28.7C27.3,15.6,38.2,9.2,50.9,5.8
		C54.2,5,57.6,4.5,61,4.1C61.2,4,61.4,4,61.5,4c2.2,0,4.3-0.1,6.5,0c7.6,0.3,14.8,2,21.8,4.9c7.1,3,13.5,7.1,19,12.4
		c5.3,5.1,9.5,11.1,12.7,17.7c3.5,7.3,5.5,14.9,6.2,23c0.2,2,0.1,4,0.1,5.9c0,0.7,0,1.3,0,2c-0.1,0.4-0.2,0.8-0.3,1.2
		c-1,10.7-4.6,20.5-10.5,29.5c-7.3,11-17.4,18.5-29.7,23.2c-4.7,1.8-9.6,2.9-14.6,3.6c-0.9,0.1-1.9,0.3-2.8,0.4c-0.4,0-0.8,0-1.3,0
		c-15.3,0.5-29.1-4.1-41.2-13.4c-9.1-7-15.4-16.1-19.5-26.7c-2.6-6.8-4-13.8-4.1-21.1C3.8,65.1,3.9,63.5,3.9,62z M49.4,40.8
		c-1.9,1.9-4,3.8-5.8,5.9c-2.7,3-5.2,6.2-7.6,9.5c-3.1,4.4-5.6,9.1-7.5,14.1c-1.7,4.5-2.9,9.1-2.6,14c0,0.7,0.1,1.4,0,2.2
		c-0.2,2.4,0.4,4.7,1.3,6.8c1.8,4.6,4.9,8.2,9.4,10.4c2,1,4.1,1.7,6.4,1.6c1.9-0.1,3.8,0,5.8,0c13.9,0,27.8,0,41.7,0
		c0.6,0,1.2,0.1,1.8-0.1c3.3-0.9,6.3-2.5,8.8-4.9c2-2,3.5-4.3,4.5-6.9c0.7-1.6,1.3-3.4,1.4-5.2c0.1-2.8,0-5.5-0.1-8.3
		c-0.1-1.2-0.5-2.3-0.7-3.5c-0.7-3.4-1.9-6.7-3.4-9.8c-1.8-3.7-3.8-7.3-6.2-10.7c-3.7-5.3-8-10-12.6-14.5c-0.4-0.4-0.8-0.6-1.4-0.6
		c-0.3,0-0.6,0-0.9,0c-10.2,0-20.4,0-30.6,0C50.6,40.8,50,40.8,49.4,40.8z M49.4,34.2c2.3,0.2,32.6,0.1,34,0
		c0.2-0.3,0.4-0.7,0.5-1.1c0.9-2.6,1.8-5.2,2.7-7.8c0.8-2.5-0.8-4.6-3.4-4.6c-2.7,0-5.4,0-8.1,0c-0.7,0-1.2-0.2-1.8-0.7
		c-2-1.9-4.4-3-7.3-2.8c-0.7,0.1-1.4-0.1-2,0.1c-1.6,0.6-3.2,1.1-4.4,2.4c-0.7,0.8-1.5,1-2.6,1c-2.6,0-5.2,0-7.7,0
		c-0.5,0-1,0-1.4,0.2c-1.6,0.7-2.5,2.8-1.9,4.3c1,2.7,1.9,5.4,2.8,8.1C49.1,33.7,49.2,33.9,49.4,34.2z"/>
	<path fill="#999A38" d="M49.4,40.8c0.6,0,1.2,0,1.7,0c10.2,0,20.4,0,30.6,0c0.3,0,0.6,0,0.9,0c0.6,0,1,0.2,1.4,0.6
		c4.6,4.5,8.9,9.2,12.6,14.5c2.4,3.4,4.4,7,6.2,10.7c1.5,3.1,2.7,6.4,3.4,9.8c0.2,1.2,0.6,2.3,0.7,3.5c0.1,2.8,0.2,5.5,0.1,8.3
		c0,1.8-0.7,3.5-1.4,5.2c-1.1,2.6-2.5,4.9-4.5,6.9c-2.5,2.5-5.5,4-8.8,4.9c-0.6,0.2-1.2,0.1-1.8,0.1c-13.9,0-27.8,0-41.7,0
		c-1.9,0-3.8-0.1-5.8,0c-2.3,0.1-4.4-0.6-6.4-1.6c-4.5-2.2-7.6-5.8-9.4-10.4c-0.9-2.2-1.5-4.4-1.3-6.8c0.1-0.7,0-1.4,0-2.2
		c-0.3-4.9,0.9-9.5,2.6-14c1.9-5,4.4-9.7,7.5-14.1c2.4-3.3,4.9-6.5,7.6-9.5C45.4,44.6,47.5,42.7,49.4,40.8z M77.8,75.2
		c0.2,2.1,0.1,4,0.1,5.9c-0.1,4.3-3.2,7.2-6.3,8.2c-2.9,0.9-5.8,0.8-8.6-0.6c-3.1-1.5-5.3-3.9-6.7-7c-1.8-4.2-2.1-8.6-1.2-13
		c1.2-5.6,6.6-12.2,15.3-11.4c3.4,0.3,6.4,1.5,8.8,4.1c0.4,0.4,0.7,0.8,1.1,1.2c0.5,0.5,1.3,0.5,1.8,0.2c0.9-0.5,1.2-1.7,0.7-2.5
		c-0.2-0.4-0.6-0.8-0.9-1.1c-2.3-2.2-4.8-3.9-7.8-5c-3.4-1.1-6.8-1.4-10.3-0.7c-6.7,1.3-11.5,4.9-14.2,11.2
		c-2.2,5.2-2.3,10.5-0.6,15.8c1.3,4.1,3.7,7.3,7.3,9.8c5.8,4,14.2,4.5,20.5,1c2.5-1.4,4.5-3.2,6-5.6c1.1-1.8,1.7-3.7,1.8-5.8
		c0-1.7,0.1-3.5,0.1-5.2c0-0.5,0-1,0-1.4c-0.1-0.9-0.7-1.5-1.6-1.7c-0.3-0.1-0.6,0-0.9-0.1c-4.1,0-8.2,0-12.2,0
		c-0.4,0-0.8,0-1.2,0.1c-0.8,0.2-1.3,0.9-1.3,1.8c0,0.8,0.5,1.5,1.4,1.7c0.5,0.1,1,0.1,1.4,0.1c1.9,0,3.7,0,5.6,0
		C76.5,75.2,77.1,75.2,77.8,75.2z"/>
	<path fill="#9A9A39" d="M49.4,34.2c-0.2-0.3-0.3-0.6-0.4-0.8c-0.9-2.7-1.8-5.5-2.8-8.1c-0.6-1.6,0.3-3.6,1.9-4.3
		c0.4-0.2,0.9-0.2,1.4-0.2c2.6,0,5.2,0,7.7,0c1,0,1.8-0.2,2.6-1c1.2-1.3,2.8-1.8,4.4-2.4c0.6-0.2,1.3,0,2-0.1
		c2.9-0.2,5.3,0.8,7.3,2.8c0.5,0.5,1.1,0.7,1.8,0.7c2.7,0,5.4,0,8.1,0c2.6,0,4.2,2.1,3.4,4.6c-0.9,2.6-1.8,5.2-2.7,7.8
		c-0.1,0.4-0.3,0.7-0.5,1.1C82,34.4,51.7,34.4,49.4,34.2z"/>
	<path fill="#FCFCFA" d="M77.8,75.2c-0.8,0-1.4-0.1-2-0.1c-1.9,0-3.7,0-5.6,0c-0.5,0-1,0-1.4-0.1c-0.8-0.2-1.3-0.9-1.4-1.7
		c0-0.8,0.5-1.5,1.3-1.8c0.4-0.1,0.8-0.1,1.2-0.1c4.1,0,8.2,0,12.2,0c0.3,0,0.6,0,0.9,0.1c0.9,0.2,1.5,0.7,1.6,1.7
		c0.1,0.5,0,1,0,1.4c0,1.7-0.1,3.5-0.1,5.2c0,2.1-0.7,4-1.8,5.8c-1.5,2.4-3.6,4.2-6,5.6c-6.4,3.5-14.7,3-20.5-1
		c-3.6-2.4-6-5.7-7.3-9.8c-1.7-5.3-1.6-10.7,0.6-15.8c2.7-6.3,7.5-9.9,14.2-11.2c3.5-0.7,6.9-0.4,10.3,0.7c3,1,5.6,2.7,7.8,5
		c0.3,0.3,0.7,0.7,0.9,1.1c0.5,0.8,0.2,2-0.7,2.5c-0.6,0.3-1.3,0.3-1.8-0.2c-0.4-0.4-0.7-0.8-1.1-1.2c-2.4-2.5-5.3-3.8-8.8-4.1
		c-8.7-0.7-14.1,5.8-15.3,11.4c-1,4.5-0.7,8.8,1.2,13c1.4,3.1,3.6,5.5,6.7,7c2.8,1.4,5.7,1.5,8.6,0.6c3.1-1,6.2-3.8,6.3-8.2
		C78,79.3,78.1,77.3,77.8,75.2z"/>
</g>
</svg>
